Coordinates
version=1
nRows=11
nColumns=40
inDegrees=yes

Units are S.I. units (second, meters, Newtons, ...)
If the header above contains a line with 'inDegrees', this indicates whether rotational values are in degrees (yes) or radians (no).

endheader
time	pelvis_tilt	pelvis_list	pelvis_rotation	pelvis_tx	pelvis_ty	pelvis_tz	hip_flexion_r	hip_adduction_r	hip_rotation_r	knee_angle_r	knee_angle_r_beta	ankle_angle_r	subtalar_angle_r	mtp_angle_r	hip_flexion_l	hip_adduction_l	hip_rotation_l	knee_angle_l	knee_angle_l_beta	ankle_angle_l	subtalar_angle_l	mtp_angle_l	lumbar_extension	lumbar_bending	lumbar_rotation	arm_flex_r	arm_add_r	arm_rot_r	elbow_flex_r	pro_sup_r	wrist_flex_r	wrist_dev_r	arm_flex_l	arm_add_l	arm_rot_l	elbow_flex_l	pro_sup_l	wrist_flex_l	wrist_dev_l
      1.45000000	     -2.01664131	      8.46727947	    -86.62933742	      0.17486445	      0.96973221	      1.13940245	     12.33277632	      5.57023525	     -4.80441367	     11.51408461	      0.20095869	      1.78566037	      0.00000000	      0.00000000	     31.42850157	     -3.31514620	     -0.91506739	     57.08577404	      0.99633471	     -4.08612337	      0.00000000	      0.00000000	      3.94486781	      0.71030472	      1.54334340	      0.00000000	      0.00000000	      0.00000000	      0.00000000	      0.00000000	      0.00000000	      0.00000000	      0.00000000	      0.00000000	      0.00000000	      0.00000000	      0.00000000	      0.00000000	      0.00000000
      1.46000000	     -1.74821615	      8.50236129	    -86.82156625	      0.17400726	      0.97022343	      1.15396374	     10.86364924	      5.49269957	     -4.38107642	     10.49626231	      0.18319434	      2.09076867	      0.00000000	      0.00000000	     32.18439157	     -3.03225880	     -1.40530649	     54.19371027	      0.94585868	     -3.30521010	      0.00000000	      0.00000000	      3.90240574	      0.35743188	      1.85629978	      0.00000000	      0.00000000	      0.00000000	      0.00000000	      0.00000000	      0.00000000	      0.00000000	      0.00000000	      0.00000000	      0.00000000	      0.00000000	      0.00000000	      0.00000000	      0.00000000
      1.47000000	     -1.50677771	      8.53215734	    -87.06202122	      0.17316139	      0.97027465	      1.16858997	      9.41286390	      5.44122521	     -3.90072566	      9.53126751	      0.16635200	      2.39957101	      0.00000000	      0.00000000	     32.78185297	     -2.80010113	     -1.94291016	     50.95950783	      0.88941120	     -2.69293570	      0.00000000	      0.00000000	      3.85868298	      0.05971268	      2.17043854	      0.00000000	      0.00000000	      0.00000000	      0.00000000	      0.00000000	      0.00000000	      0.00000000	      0.00000000	      0.00000000	      0.00000000	      0.00000000	      0.00000000	      0.00000000	      0.00000000
      1.48000000	     -1.30795666	      8.53811131	    -87.36146943	      0.17229031	      0.96991697	      1.18324527	      7.96962191	      5.42420889	     -3.38175503	      8.62213131	      0.15048458	      2.72923559	      0.00000000	      0.00000000	     33.21870991	     -2.66327898	     -2.58469383	     47.42399514	      0.82770486	     -2.24788251	      0.00000000	      0.00000000	      3.79050070	     -0.17780252	      2.52715862	      0.00000000	      0.00000000	      0.00000000	      0.00000000	      0.00000000	      0.00000000	      0.00000000	      0.00000000	      0.00000000	      0.00000000	      0.00000000	      0.00000000	      0.00000000	      0.00000000
      1.49000000	     -1.14942414	      8.51936185	    -87.68709437	      0.17145282	      0.96914685	      1.19797948	      6.52734715	      5.43848769	     -2.81174059	      7.78017534	      0.13578968	      3.06508443	     -0.00000000	     -0.00000000	     33.50076585	     -2.56717922	     -3.25003380	     43.61477986	      0.76122151	     -1.92055741	     -0.00000000	     -0.00000000	      3.69863688	     -0.35541561	      2.89062026	      0.00000000	      0.00000000	     -0.00000000	      0.00000000	      0.00000000	      0.00000000	      0.00000000	     -0.00000000	      0.00000000	     -0.00000000	      0.00000000	      0.00000000	      0.00000000	      0.00000000
      1.50000000	     -1.02188845	      8.51359416	    -88.04955092	      0.17066869	      0.96793595	      1.21275638	      5.13702625	      5.46095152	     -2.22076216	      7.01928393	      0.12250962	      3.44084875	      0.00000000	      0.00000000	     33.69027265	     -2.51943628	     -3.99712558	     39.57926907	      0.69078856	     -1.69734220	      0.00000000	      0.00000000	      3.62520875	     -0.47689328	      3.25847439	      0.00000000	     -0.00000000	     -0.00000000	      0.00000000	      0.00000000	     -0.00000000	     -0.00000000	     -0.00000000	      0.00000000	     -0.00000000	      0.00000000	      0.00000000	     -0.00000000	      0.00000000
      1.51000000	     -0.94050381	      8.48589668	    -88.40561633	      0.16999458	      0.96634826	      1.22759816	      3.74735010	      5.50517380	     -1.64433168	      6.31735642	      0.11025867	      3.84336174	      0.00000000	      0.00000000	     33.77563072	     -2.48357321	     -4.74523479	     35.38103251	      0.61751551	     -1.51340592	      0.00000000	      0.00000000	      3.52849653	     -0.53435429	      3.61135062	      0.00000000	      0.00000000	      0.00000000	      0.00000000	      0.00000000	      0.00000000	      0.00000000	      0.00000000	      0.00000000	      0.00000000	      0.00000000	      0.00000000	      0.00000000	      0.00000000
      1.52000000	     -0.89616276	      8.46383264	    -88.74502285	      0.16944450	      0.96435394	      1.24251692	      2.39456068	      5.56071831	     -1.09950515	      5.69247172	      0.09935237	      4.28728361	      0.00000000	      0.00000000	     33.80238850	     -2.43592036	     -5.46426703	     31.07107364	      0.54229254	     -1.34469981	      0.00000000	      0.00000000	      3.44774288	     -0.54706461	      3.92968716	      0.00000000	      0.00000000	      0.00000000	      0.00000000	      0.00000000	      0.00000000	      0.00000000	      0.00000000	      0.00000000	      0.00000000	      0.00000000	      0.00000000	      0.00000000	      0.00000000
      1.53000000	     -0.88098271	      8.45036705	    -89.04248983	      0.16910593	      0.96199561	      1.25748286	      1.08449717	      5.61296618	     -0.61764098	      5.14633775	      0.08982054	      4.77514096	      0.00000000	      0.00000000	     33.80067325	     -2.32928234	     -6.05984252	     26.72578247	      0.46645290	     -1.15315264	     -0.00000000	      0.00000000	      3.37442051	     -0.51397025	      4.19068164	     -0.00000000	     -0.00000000	     -0.00000000	      0.00000000	      0.00000000	      0.00000000	     -0.00000000	      0.00000000	     -0.00000000	     -0.00000000	      0.00000000	      0.00000000	      0.00000000	     -0.00000000
      1.54000000	     -0.89482882	      8.45631715	    -89.29106058	      0.16897404	      0.95929979	      1.27250923	     -0.16476632	      5.66748819	     -0.21411397	      4.69325712	      0.08191279	      5.30945052	      0.00000000	      0.00000000	     33.79186525	     -2.15412484	     -6.43003708	     22.41181521	      0.39115997	     -0.89545246	      0.00000000	      0.00000000	      3.32479466	     -0.44365060	      4.39825423	      0.00000000	      0.00000000	      0.00000000	      0.00000000	      0.00000000	      0.00000000	      0.00000000	      0.00000000	      0.00000000	      0.00000000	      0.00000000	      0.00000000	      0.00000000	      0.00000000
      1.55000000	     -0.92239305	      8.45368500	    -89.47061165	      0.16909435	      0.95634450	      1.28764418	     -1.40103900	      5.70876817	      0.10175768	      4.30190100	      0.07508234	      5.85750596	      0.00000000	      0.00000000	     33.74298298	     -1.87620713	     -6.41385619	     18.19396863	      0.31754466	     -0.53158772	      0.00000000	      0.00000000	      3.26971505	     -0.35082993	      4.52755887	      0.00000000	      0.00000000	      0.00000000	      0.00000000	      0.00000000	      0.00000000	      0.00000000	      0.00000000	      0.00000000	      0.00000000	      0.00000000	      0.00000000	      0.00000000	      0.00000000
